<svg preserveAspectRatio="xMidYMid meet" data-bbox="28.8 20 142.339 160" xmlns="http://www.w3.org/2000/svg" width="200" height="200" viewBox="28.8 20 142.339 160" data-type="color" role="presentation" aria-hidden="true" aria-label=""><defs><style>#comp-k97hde3z svg [data-color="1"] {fill: #000000;}</style></defs>
    <g>
        <path fill="#ff3644" d="M31.7 124.3c1.6 0 2.9-1.3 2.9-2.9V96h10.6c1.6 0 2.9-1.3 2.9-2.9s-1.3-2.9-2.9-2.9H34.6V67.1h10.6c1.6 0 2.9-1.3 2.9-2.9 0-1.6-1.3-2.9-2.9-2.9H34.6V25.8h32.7v66.1c0 1.6 1.3 2.9 2.9 2.9 1.6 0 2.9-1.3 2.9-2.9v-69c0-1.6-1.3-2.9-2.9-2.9H31.7c-1.6 0-2.9 1.3-2.9 2.9v98.5c0 1.6 1.3 2.9 2.9 2.9z" data-color="1"></path>
        <path fill="#ff3644" d="M127.3 95.4L107 82.5c-1-.6-2.3-.6-3.2.1L30 135.8c-.8.5-1.2 1.4-1.2 2.3v17.1c0 1.6 1.3 2.9 2.9 2.9h6.8v19c0 1.6 1.3 2.9 2.9 2.9s2.9-1.3 2.9-2.9v-21.8c0-1.6-1.3-2.9-2.9-2.9h-6.8v-12.7l71-51.2 18.6 11.8c1.3.8 3.1.5 4-.9.8-1.4.4-3.2-.9-4z" data-color="1"></path>
        <path fill="#ff3644" d="M120.2 152.7H85.6c-1.6 0-2.9 1.3-2.9 2.9v21.5c0 1.6 1.3 2.9 2.9 2.9s2.9-1.3 2.9-2.9v-18.6h28.8v18.6c0 1.6 1.3 2.9 2.9 2.9s2.9-1.3 2.9-2.9v-21.5c0-1.6-1.3-2.9-2.9-2.9z" data-color="1"></path>
        <path fill="#ff3644" d="M170.9 65.2L155.7 33c-.5-1-1.5-1.7-2.7-1.7-1.1 0-2.2.7-2.6 1.8l-13.7 32.1c-.2.4-.2.7-.2 1.1V170c0 5.5 4.4 9.9 9.9 9.9h14.7c5.5 0 9.9-4.4 9.9-9.9l.1-103.7c.1-.3 0-.8-.2-1.1zm-5.6 104.9c0 2.3-1.9 4.1-4.1 4.1h-14.7c-2.3 0-4.1-1.9-4.1-4.1V67l10.9-25.7L165.4 67l-.1 103.1z" data-color="1"></path>
        <path fill="#ff3644" d="M151 72.1v79.6c0 1.6 1.3 2.9 2.9 2.9 1.6 0 2.9-1.3 2.9-2.9V72.1c0-1.6-1.3-2.9-2.9-2.9-1.6 0-2.9 1.3-2.9 2.9z" data-color="1"></path>
        <path fill="#ff3644" d="M47 37c-.2 0-.4.2-.4.4v10.2c0 .2.2.4.4.4h10.2c.2 0 .4-.2.4-.4V37.4c0-.2-.2-.4-.4-.4H47z" data-color="1"></path>
    </g>
</svg>