<svg preserveAspectRatio="xMidYMid meet" data-bbox="26.525 22.625 146.957 154.875" viewBox="26.525 22.625 146.957 154.875" height="200" width="200" xmlns="http://www.w3.org/2000/svg" data-type="color" role="presentation" aria-hidden="true">
    <g>
        <path d="M170.6 176.9c-.8.4-1.9.6-2.7.6-2.1 0-4-1-5-2.9l-25.8-49.8-70.6-6.1-29.3 55.9c-1 1.9-3.1 2.9-5 2.9-1 0-1.9-.2-2.7-.6-2.7-1.5-3.8-4.8-2.3-7.5l27.2-51.9-25.5-2.1s.4-5.2 1-11.5c.6-6.5 6.3-11.1 12.6-10.7l76.8 6.7c4.4.4 8 3.1 9.6 6.7-.6-1.9-.8-3.8-.4-5.6l13.6-68.6c1-6.5 7.1-10.7 13.4-9.6 6.3 1.3 11.3 2.1 11.3 2.1l-14.9 77-3.6 20.7 24.3 47.1c1.8 2.6.7 5.7-2 7.2z"></path>
    </g>
</svg>
