<svg viewBox="21 40.975 158.2 118.05" xmlns="http://www.w3.org/2000/svg">
  <g>
    <!-- top mountain -->
    <path d="M177.5 81.2h-23.6c-.8 0-1.5-.7-1.5-1.5v-5.9c0-2.2-1.2-4.2-3.1-5.3L103 41.8c-1.9-1.1-4.3-1.1-6.2 0L50.6 68.6c-1.9 1.1-3.1 3.1-3.1 5.3v5.9c0 .8-.7 1.5-1.5 1.5H22.5c-.8 0-1.5.7-1.5 1.5v1.5c0 .8.7 1.5 1.5 1.5h155.1c.8 0 1.5-.7 1.5-1.5v-1.5c-.1-.9-.8-1.6-1.6-1.6zM148 79.8c0 .8-.7 1.5-1.5 1.5H53.4c-.8 0-1.5-.7-1.5-1.5v-5c0-1.1.6-2.2 1.6-2.8l45.6-26.3c.5-.3 1.2-.3 1.7 0l46.3 26.7c.5.3.9.9.9 1.5v5.9z" fill="#DBDBDB"/>

    <!-- bottom mountain -->
    <path d="M177.5 114.3h-155c-.8 0-1.5.7-1.5 1.5v1.5c0 .8.7 1.5 1.5 1.5h23.6c.8 0 1.5.7 1.5 1.5v5.9c0 2.2 1.2 4.2 3.1 5.3L97 158.2c1.9 1.1 4.3 1.1 6.2 0l46.3-26.7c1.9-1.1 3.1-3.1 3.1-5.3v-5.9c0-.8.7-1.5 1.5-1.5h23.6c.8 0 1.5-.7 1.5-1.5v-1.5c-.2-.8-.9-1.5-1.7-1.5zM148 126.1c0 .6-.3 1.2-.9 1.5l-46.3 26.7c-.5.3-1.2.3-1.7 0L53.6 128c-1-.6-1.6-1.6-1.6-2.8v-5c0-.8.7-1.5 1.5-1.5h93.1c.8 0 1.5.7 1.5 1.5v5.9h-.1z" fill="#DBDBDB"/>

    <!-- main red shapes -->
    <path d="M114.6 72.3c-.5-.4-1.3-1.1-2.1-1.8-.8-.6-1.5-1.3-2-1.6-.6-.5-.9-.8-1.7-.9-.7-.1-.8-.3-.8-.3-.2-.4-.6-.9-.8-1.3-.4-.7-.7-.9-1.1-1-.4-.2-.9.2-1.2.4-.3-.5-1.2-1.7-1.6-2.2-.2-.2-.4-.3-.6-.3-.5 0-1.1.5-1.4 1-.3.4-.9 1-1.3 1.4-.2.2-.3.3-.4.5-.2.2-.3.2-.9-.3-.7-.7-1.2 1-1.6 1.7-.2.3-.2.4-.3.4-.7-.4-1.1.1-1.4.4-.3.4-.5.6-1 .9-.6.3-1 .7-1.5 1.2l-.7.7c-1.2 1.2-2.4 2-3.5 2.5-.3.1-.8.4-.7.8.2.5 1.7.2 2.2 0 .7-.3 1.4-1 2.1-1.7 1.1-.8 2-1.6 2.5-2.3 0 .2.1.6 0 1-.1.5.2.6.3.7.4.1.7-.3.9-.6.1-.2.2-.3.3-.3.1 0 .2 0 .3.1 0 .1 0 .4-.7 1.3-.1.1-.3.4-.1.6.2.3.6.2 1.2 0 .6-.1.8-.5 1.1-.8.2-.2.3-.4.3-.6s-.2-.4-.4-.5c-.4-.5-.6-.5-.8-.6-.4-.3-.4-.3-.4-.5V67c0-.1.4-.5.6-.8.2-.2.3-.4.5-.6v.2c0 .2.1.4.2.7.2.6.6.8 1 1 .4.2.5.3.5.3.2.2.2.4.3.6.1.3.1.6.5.7h.3c.2-.1.2-.3.3-.5.1.3.2.6.5 1 .4.4.8.5 1.1.4.2 0 .3-.2.4-.4.2-.4-.2-1-.9-1.2.1-.2.2-.4.2-.6 0-.6-.3-.8-1-.9-.5-.2-.6-.2-.8-.5.5-.7.8-.9.9.1.1.1.3.2.4.1.3 0 .5-.3.8-.6.2.4.3.8.3 1.4 0 .4-.1.8-.3 1.2-.3.6 0 .8.1.9.3.2.7.1 1-.2.2-.2.2-.3.3-.6.1-.5.1-.6.2-.6.3.1.6.3 1.3-.1.2-.1.3-.2.3-.2.2.4.2.7-.1 1.3-.2.4-.5.6-1 .9-.5.4-.3.8-.2.9.3.3.9.3 1.4-.1.4-.4.7-.6 1.2-.8.6-.3 1.1-.2 1.6 0 0 .1-.1.3-.4.8-.3.3-1 .5-1.6.7-.4.1-.7.2-1 .3-.2.1-.6.2-.5.6.1.5 1.4.3 1.8.3.5-.1.6.1.9.5.2.2.4.5.7.7.3.2.6.3.8.3.4 0 .6-.3.8-.6.4-.3.5-.3 1-.3.3 0 .6.3 1 .7.6.6.9.6 1.2.6.2 0 .3-.1.5-.2.1-.1.2-.2.2-.4 0-.3-.4-.8-1.1-1.4z" fill="#FF4040"/>

    <!-- stars -->
    <path d="M102.3 132.2l.4-2.5-2.3 1.2-2.3-1.2.4 2.5-1.8 1.8 2.5.4 1.1 2.3 1.1-2.3 2.5-.4-1.6-1.8z" fill="#FF4040"/>
    <path d="M114.8 131.2l.3-1.7-1.5.8-1.5-.8.3 1.7-1.2 1.2 1.7.2.7 1.5.7-1.5 1.7-.2-1.2-1.2z" fill="#FF4040"/>
    <path d="M88.2 131.2l.3-1.7-1.5.8-1.5-.8.3 1.7-1.2 1.2 1.7.2.7 1.5.7-1.5 1.7-.2-1.2-1.2z" fill="#FF4040"/>
  </g>
</svg>
