<svg preserveAspectRatio="xMidYMid meet" data-bbox="39 41 122 118" viewBox="39 41 122 118" height="200" width="200" xmlns="http://www.w3.org/2000/svg" data-type="color" role="presentation" aria-hidden="true">
    <g>
        <path fill="#E5B5D0" d="M54.6 41L39 68.6l1.1.6 15.6-26.9h103l-67.1 116 1.1.7L161 41H54.6z" data-color="1"></path>
        <path fill="#E5B5D0" d="M56.904 44.931l1.128.647L42.416 72.82l-1.128-.647L56.904 44.93z" data-color="1"></path>
        <path fill="#E5B5D0" d="M59.205 48.832l1.127.646-15.616 27.243-1.127-.646 15.616-27.243z" data-color="1"></path>
        <path fill="#E5B5D0" d="M61.57 52.813l1.127.648-15.61 27.131-1.127-.648 15.61-27.131z" data-color="1"></path>
        <path fill="#E5B5D0" d="M63.832 56.784l1.125.652-15.684 27.086-1.125-.651 15.684-27.087z" data-color="1"></path>
        <path fill="#E5B5D0" d="M66.056 60.7l1.126.65-15.687 27.2-1.127-.65 15.688-27.198z" data-color="1"></path>
        <path fill="#E5B5D0" d="M68.442 64.652l1.126.65-15.687 27.197-1.126-.65 15.687-27.197z" data-color="1"></path>
        <path fill="#E5B5D0" d="M70.656 68.5l1.126.65-15.687 27.2-1.127-.65 15.688-27.198z" data-color="1"></path>
        <path fill="#E5B5D0" d="M73.042 72.45l1.126.65-15.688 27.2-1.127-.65 15.688-27.198z" data-color="1"></path>
        <path fill="#E5B5D0" d="M75.27 76.302l1.127.65-15.707 27.19-1.125-.65 15.706-27.19z" data-color="1"></path>
        <path fill="#E5B5D0" d="M77.506 80.132l1.127.646-15.616 27.243-1.127-.646 15.616-27.243z" data-color="1"></path>
        <path fill="#E5B5D0" d="M79.892 84.083l1.128.646-15.616 27.243-1.128-.647 15.616-27.242z" data-color="1"></path>
        <path fill="#E5B5D0" d="M82.171 88.01l1.127.65-15.61 27.13-1.127-.648 15.61-27.131z" data-color="1"></path>
        <path fill="#E5B5D0" d="M84.472 91.91l1.127.649-15.61 27.13-1.127-.648 15.61-27.13z" data-color="1"></path>
        <path fill="#E5B5D0" d="M86.706 95.833l1.127.646-15.616 27.243-1.127-.646 15.616-27.243z" data-color="1"></path>
        <path fill="#E5B5D0" d="M89.006 99.732l1.128.646-15.616 27.243-1.128-.646 15.616-27.243z" data-color="1"></path>
        <path fill="#E5B5D0" d="M91.306 103.632l1.128.647-15.616 27.243-1.128-.647 15.616-27.243z" data-color="1"></path>
        <path fill="#E5B5D0" d="M93.693 107.584l1.128.646-15.616 27.243-1.128-.647 15.616-27.242z" data-color="1"></path>
        <path fill="#E5B5D0" d="M95.87 111.503l1.126.65-15.707 27.19-1.125-.65 15.706-27.19z" data-color="1"></path>
        <path fill="#E5B5D0" d="M98.169 115.403l1.126.65-15.706 27.19-1.126-.65 15.706-27.19z" data-color="1"></path>
        <path fill="#E5B5D0" d="M100.538 119.38l1.124.651-15.7 27.078-1.124-.652 15.7-27.078z" data-color="1"></path>
        <path fill="#E5B5D0" d="M102.838 123.28l1.124.652-15.7 27.078-1.124-.652 15.7-27.078z" data-color="1"></path>
        <path fill="#E5B5D0" d="M105.138 127.18l1.124.651-15.7 27.078-1.124-.652 15.7-27.078z" data-color="1"></path>
    </g>
</svg>